<?xml version="1.0" encoding="UTF-8"?> <svg xmlns="http://www.w3.org/2000/svg" width="230" height="60" viewBox="0 0 230 60" fill="none"> <path fill-rule="evenodd" clip-rule="evenodd" d="M12.5184 46.8402C12.5184 47.6227 12.4633 48.5172 13.0727 49.1322C13.7371 49.8029 14.9559 49.8029 15.122 49.8029H16.8392C19.6642 49.8029 22.5446 49.4676 24.0955 47.5672C24.6493 46.9522 25.8128 45.1636 25.8128 39.6297C25.8128 35.3253 24.7048 32.8103 23.2092 31.4686C21.492 29.9591 19.1658 29.7917 16.1745 29.7917L15.2327 29.7916C14.5682 29.7916 13.848 29.8479 13.294 30.2389C12.574 30.7977 12.5184 31.8599 12.5184 32.419V46.8402ZM0 27.4444C0 25.8787 0.0554854 23.8105 1.27405 22.3574C2.21568 21.2394 3.98823 20.4009 5.92686 20.4009L23.5971 20.4008C27.9175 20.4008 32.4598 21.9659 35.1739 25.1523C37.8882 28.3378 38.6637 32.9779 38.6637 39.7414C38.6637 47.3434 37.6664 51.8709 35.6724 54.61C33.7337 57.2934 29.9117 59.529 24.5386 59.529H6.37012C5.20679 59.529 3.21293 59.4173 1.77267 58.0759C0.720189 57.1253 0 55.5605 0 53.7158V27.4444Z" fill="#22201E"></path> <path fill-rule="evenodd" clip-rule="evenodd" d="M54.8567 47.4075C56.5198 49.9825 58.7392 50.2622 61.899 50.2622C65.1717 50.2622 67.223 49.9825 68.9422 47.4077C70.3839 45.2811 70.3839 43.0991 70.3839 39.9646C70.3839 36.5512 70.4394 34.7045 68.9422 32.5222C67.223 29.9478 65.1717 29.6679 61.899 29.6679C58.6836 29.6677 56.5198 29.948 54.8567 32.5222C53.4702 34.5926 53.4145 36.7193 53.4145 39.9646C53.4145 43.0427 53.5813 45.4493 54.8567 47.4075ZM78.8688 23.9594C83.0834 27.8768 83.2504 34.7045 83.2504 39.9646C83.2504 45.1134 83.0834 51.9967 78.8688 55.97C74.7648 59.8315 67.667 59.9995 61.899 59.9995C56.1322 59.9995 49.0334 59.8317 44.9298 55.97C40.7153 51.9967 40.5489 45.1134 40.5489 39.9646C40.5489 34.7045 40.7153 27.8769 44.9298 23.9596C49.0891 20.0982 56.0209 19.9304 61.899 19.9304C67.7773 19.9301 74.7101 20.0985 78.8688 23.9594Z" fill="#22201E"></path> <path fill-rule="evenodd" clip-rule="evenodd" d="M126.568 34.4247C126.347 34.4247 126.124 34.7606 125.792 35.8236L119.803 54.739C118.915 57.5931 117.806 59.9995 112.317 59.9995C106.826 59.9995 105.717 57.5933 104.83 54.739L98.8401 35.8236C98.6185 35.0963 98.3412 34.4248 98.0642 34.4248C97.5656 34.4247 97.6203 35.3199 97.6203 35.7119L97.6585 59.5516H85.42V26.8141C85.42 19.9301 92.962 19.9304 94.959 19.9304C98.23 19.9301 102.889 20.3226 104.885 26.4221L111.151 45.4492C111.263 45.8409 111.873 47.2401 112.317 47.2401C112.76 47.2401 113.37 45.8411 113.481 45.4494L119.747 26.422C120.396 24.253 123.241 19.7065 126.568 19.7065L126.568 34.4247Z" fill="#22201E"></path> <path fill-rule="evenodd" clip-rule="evenodd" d="M185.633 53.0043C185.633 54.403 185.355 60 177.204 60C174.265 60 171.214 59.6081 168.775 56.1383L154.744 36.1598C154.466 35.7678 154.079 35.2084 153.69 35.2084C153.524 35.2083 152.914 35.2084 152.914 36.3277L152.914 59.5518H143.264V26.8702C143.264 21.7771 147.479 19.9304 151.972 19.9304C154.079 19.9301 157.795 20.1544 160.179 23.5683L174.32 43.7145C174.598 44.1064 174.93 44.666 175.374 44.666C175.984 44.666 175.984 43.9947 175.984 43.7145V20.3784H185.633V53.0043Z" fill="#22201E"></path> <path fill-rule="evenodd" clip-rule="evenodd" d="M201.607 47.2962C203.27 49.8704 205.489 50.1499 208.648 50.1499C211.922 50.1497 213.973 49.8704 215.691 47.2962C217.134 45.1695 217.134 42.9868 217.134 39.8527C217.134 36.439 217.19 34.5922 215.691 32.4099C213.973 29.8357 211.922 29.5561 208.648 29.5561C205.432 29.5559 203.27 29.8357 201.607 32.4099C200.221 34.4803 200.164 36.6076 200.164 39.8527C200.164 42.9311 200.33 45.3368 201.607 47.2962ZM225.619 23.8477C229.834 27.7649 230 34.5922 230 39.8527C230 45.0014 229.834 51.8846 225.619 55.8582C221.514 59.7192 214.416 59.8879 208.648 59.8879C202.881 59.8879 195.783 59.7193 191.68 55.8582C187.466 51.8845 187.299 45.0015 187.299 39.8527C187.299 34.5922 187.466 27.7652 191.68 23.8479C195.838 19.9863 202.77 19.8182 208.648 19.8182C214.528 19.8181 221.459 19.9866 225.619 23.8477Z" fill="#22201E"></path> <path fill-rule="evenodd" clip-rule="evenodd" d="M128.711 19.297C138.348 18.5817 141.355 21.1938 141.355 27.0505L141.295 59.4013C141.295 59.4013 128.651 60.614 128.651 53.2453L128.711 19.297Z" fill="#E31E24"></path> <path fill-rule="evenodd" clip-rule="evenodd" d="M128.711 0.0989563C129.361 0.0507309 129.98 0.0181629 130.571 0.000125383L132.557 0C139.17 0.226221 141.355 2.86045 141.355 7.85284L141.355 16.9523C141.355 16.9523 128.711 18.1643 128.711 10.796L128.711 0.0989563Z" fill="#E31E24"></path> </svg> 